<mxfile host="app.diagrams.net" modified="2021-10-11T08:37:35.261Z" agent="5.0 (Windows NT 10.0; Win64; x64) AppleWebKit/537.36 (KHTML, like Gecko) Chrome/94.0.4606.71 Safari/537.36" etag="-eHuwS5CXEdnS300mu83" version="15.5.0" type="github">
  <diagram id="sAFOBQeFJ_5edHOZZvsE" name="Page-1">
    <mxGraphModel dx="1038" dy="491" grid="1" gridSize="10" guides="1" tooltips="1" connect="1" arrows="1" fold="1" page="1" pageScale="1" pageWidth="827" pageHeight="1169" math="0" shadow="0">
      <root>
        <mxCell id="0" />
        <mxCell id="1" parent="0" />
        <mxCell id="c5zeUe-koDPsNLg-zj8j-1" value="" style="rounded=1;whiteSpace=wrap;html=1;fillColor=#fff2cc;strokeColor=#d6b656;shadow=0;sketch=0;strokeWidth=2;" vertex="1" parent="1">
          <mxGeometry x="60" y="30" width="760.5" height="240" as="geometry" />
        </mxCell>
        <mxCell id="c5zeUe-koDPsNLg-zj8j-11" value="&lt;font style=&quot;font-size: 16px&quot;&gt;&lt;b&gt;对于【爱】单词&lt;/b&gt;&lt;/font&gt;" style="text;html=1;strokeColor=none;fillColor=none;align=center;verticalAlign=middle;whiteSpace=wrap;rounded=0;" vertex="1" parent="1">
          <mxGeometry x="67" y="130" width="130" height="30" as="geometry" />
        </mxCell>
        <mxCell id="c5zeUe-koDPsNLg-zj8j-13" value="" style="strokeWidth=2;html=1;shape=mxgraph.flowchart.annotation_2;align=left;labelPosition=right;pointerEvents=1;fontSize=16;" vertex="1" parent="1">
          <mxGeometry x="198" y="95" width="50" height="100" as="geometry" />
        </mxCell>
        <mxCell id="c5zeUe-koDPsNLg-zj8j-14" value="&lt;b&gt;【sin,&amp;nbsp; cos,&amp;nbsp; sin,&amp;nbsp; ......,&amp;nbsp; cos】&lt;/b&gt;" style="rounded=1;whiteSpace=wrap;html=1;fontSize=16;fillColor=#dae8fc;strokeColor=#6c8ebf;" vertex="1" parent="1">
          <mxGeometry x="263" y="180" width="220" height="30" as="geometry" />
        </mxCell>
        <mxCell id="c5zeUe-koDPsNLg-zj8j-15" value="&lt;b&gt;[0.1,&amp;nbsp; 0.1,&amp;nbsp; 0.2,&amp;nbsp; ......&amp;nbsp; 0.2]&lt;/b&gt;" style="rounded=1;whiteSpace=wrap;html=1;fontSize=16;fillColor=#dae8fc;strokeColor=#6c8ebf;" vertex="1" parent="1">
          <mxGeometry x="263" y="80" width="220" height="30" as="geometry" />
        </mxCell>
        <mxCell id="c5zeUe-koDPsNLg-zj8j-16" value="&lt;b&gt;Embedding: 512&lt;/b&gt;" style="text;html=1;strokeColor=none;fillColor=none;align=center;verticalAlign=middle;whiteSpace=wrap;rounded=0;fontSize=16;" vertex="1" parent="1">
          <mxGeometry x="303" y="40" width="140" height="30" as="geometry" />
        </mxCell>
        <mxCell id="c5zeUe-koDPsNLg-zj8j-18" value="&lt;b&gt;位置编码: 512&lt;/b&gt;" style="text;html=1;strokeColor=none;fillColor=none;align=center;verticalAlign=middle;whiteSpace=wrap;rounded=0;fontSize=16;" vertex="1" parent="1">
          <mxGeometry x="318" y="230" width="110" height="30" as="geometry" />
        </mxCell>
        <mxCell id="c5zeUe-koDPsNLg-zj8j-19" value="&lt;b&gt;&lt;font style=&quot;font-size: 31px&quot;&gt;+&lt;/font&gt;&lt;/b&gt;" style="text;html=1;strokeColor=none;fillColor=none;align=center;verticalAlign=middle;whiteSpace=wrap;rounded=0;fontSize=16;" vertex="1" parent="1">
          <mxGeometry x="483" y="130" width="50" height="30" as="geometry" />
        </mxCell>
        <mxCell id="c5zeUe-koDPsNLg-zj8j-20" value="" style="endArrow=classic;html=1;rounded=0;fontSize=31;edgeStyle=orthogonalEdgeStyle;strokeWidth=2;" edge="1" parent="1">
          <mxGeometry width="50" height="50" relative="1" as="geometry">
            <mxPoint x="533" y="146" as="sourcePoint" />
            <mxPoint x="563" y="146" as="targetPoint" />
          </mxGeometry>
        </mxCell>
        <mxCell id="c5zeUe-koDPsNLg-zj8j-21" value="" style="rounded=1;whiteSpace=wrap;html=1;fontSize=16;fillColor=#dae8fc;strokeColor=#6c8ebf;" vertex="1" parent="1">
          <mxGeometry x="586" y="130" width="220" height="30" as="geometry" />
        </mxCell>
        <mxCell id="c5zeUe-koDPsNLg-zj8j-22" value="&lt;b&gt;&amp;nbsp;512&lt;/b&gt;" style="text;html=1;strokeColor=none;fillColor=none;align=center;verticalAlign=middle;whiteSpace=wrap;rounded=0;fontSize=16;" vertex="1" parent="1">
          <mxGeometry x="666" y="95" width="60" height="30" as="geometry" />
        </mxCell>
      </root>
    </mxGraphModel>
  </diagram>
</mxfile>
